<svg width="202" height="26" viewBox="0 0 202 26" fill="none" xmlns="http://www.w3.org/2000/svg">
<path d="M15.5283 0.763064V17.7775C15.5283 20.1387 14.8454 21.9791 13.4797 23.2986C12.1139 24.5949 10.2851 25.2431 7.99336 25.2431C5.67847 25.2431 3.8034 24.5717 2.36817 23.2291C0.956085 21.8865 0.250043 20.0114 0.250043 17.6039H5.11132C5.13447 18.6456 5.37753 19.4558 5.84051 20.0346C6.32664 20.6133 7.02111 20.9026 7.92391 20.9026C8.80357 20.9026 9.47489 20.6249 9.93787 20.0693C10.4009 19.5137 10.6323 18.7498 10.6323 17.7775V0.763064H15.5283ZM41.304 0.763064V25H36.4427V14.6871H26.0604V25H21.1991V0.763064H26.0604V10.7287H36.4427V0.763064H41.304ZM57.3391 25.2431C55.0705 25.2431 52.9871 24.7106 51.0889 23.6458C49.1907 22.5809 47.686 21.111 46.5749 19.2359C45.4637 17.3377 44.9081 15.1964 44.9081 12.8121C44.9081 10.4509 45.4637 8.33277 46.5749 6.4577C47.686 4.55949 49.1907 3.07796 51.0889 2.0131C52.9871 0.948255 55.0705 0.41583 57.3391 0.41583C59.6309 0.41583 61.7143 0.948255 63.5893 2.0131C65.4875 3.07796 66.9806 4.55949 68.0686 6.4577C69.1798 8.33277 69.7354 10.4509 69.7354 12.8121C69.7354 15.1964 69.1798 17.3377 68.0686 19.2359C66.9806 21.111 65.4875 22.5809 63.5893 23.6458C61.6911 24.7106 59.6077 25.2431 57.3391 25.2431ZM57.3391 20.9026C58.7975 20.9026 60.0823 20.5786 61.1934 19.9304C62.3046 19.2591 63.1726 18.31 63.7977 17.0831C64.4227 15.8562 64.7352 14.4325 64.7352 12.8121C64.7352 11.1917 64.4227 9.77957 63.7977 8.57583C63.1726 7.34894 62.3046 6.4114 61.1934 5.76323C60.0823 5.11506 58.7975 4.79098 57.3391 4.79098C55.8807 4.79098 54.5844 5.11506 53.4501 5.76323C52.3389 6.4114 51.4709 7.34894 50.8458 8.57583C50.2208 9.77957 49.9083 11.1917 49.9083 12.8121C49.9083 14.4325 50.2208 15.8562 50.8458 17.0831C51.4709 18.31 52.3389 19.2591 53.4501 19.9304C54.5844 20.5786 55.8807 20.9026 57.3391 20.9026ZM94.0819 25H89.2206L78.2133 8.36749V25H73.352V0.728339H78.2133L89.2206 17.3956V0.728339H94.0819V25Z" fill="black"/>
<path d="M117.22 8.47166C117.22 9.88374 116.896 11.1801 116.248 12.3607C115.599 13.5181 114.604 14.4557 113.261 15.1733C111.919 15.8909 110.252 16.2497 108.261 16.2497H104.581V25H98.6429V0.62417H108.261C110.206 0.62417 111.849 0.959829 113.192 1.63115C114.535 2.30247 115.542 3.22842 116.213 4.40902C116.884 5.58962 117.22 6.94383 117.22 8.47166ZM107.81 11.5273C108.944 11.5273 109.789 11.2611 110.345 10.7287C110.9 10.1963 111.178 9.44391 111.178 8.47166C111.178 7.4994 110.9 6.74706 110.345 6.21464C109.789 5.68221 108.944 5.416 107.81 5.416H104.581V11.5273H107.81ZM126.249 20.4165H134.027V25H120.311V0.62417H126.249V20.4165ZM152.033 20.6943H142.936L141.477 25H135.262L144.081 0.62417H150.957L159.776 25H153.491L152.033 20.6943ZM150.505 16.1108L147.484 7.18689L144.498 16.1108H150.505ZM171.28 25.2431C169.498 25.2431 167.901 24.9537 166.489 24.375C165.077 23.7963 163.942 22.9397 163.086 21.8054C162.252 20.6711 161.813 19.3054 161.766 17.7081H168.086C168.178 18.6109 168.491 19.3054 169.023 19.7915C169.556 20.2545 170.25 20.486 171.107 20.486C171.986 20.486 172.681 20.2892 173.19 19.8957C173.7 19.479 173.954 18.9118 173.954 18.1942C173.954 17.5923 173.746 17.0946 173.329 16.7011C172.936 16.3076 172.438 15.9835 171.836 15.7289C171.257 15.4742 170.424 15.1849 169.336 14.8608C167.762 14.3746 166.477 13.8885 165.482 13.4024C164.486 12.9163 163.63 12.1986 162.912 11.2495C162.194 10.3004 161.836 9.06196 161.836 7.53413C161.836 5.26553 162.657 3.49464 164.301 2.22145C165.945 0.925106 168.086 0.276936 170.725 0.276936C173.41 0.276936 175.575 0.925106 177.218 2.22145C178.862 3.49464 179.741 5.27711 179.857 7.56885H173.433C173.387 6.78179 173.098 6.16834 172.565 5.72851C172.033 5.26553 171.35 5.03404 170.517 5.03404C169.799 5.03404 169.22 5.23081 168.78 5.62434C168.341 5.99472 168.121 6.53872 168.121 7.25634C168.121 8.0434 168.491 8.65685 169.232 9.09668C169.973 9.53651 171.13 10.0111 172.704 10.5203C174.278 11.0528 175.551 11.562 176.524 12.0482C177.519 12.5343 178.376 13.2403 179.093 14.1663C179.811 15.0923 180.17 16.2844 180.17 17.7428C180.17 19.1317 179.811 20.3934 179.093 21.5277C178.399 22.662 177.38 23.5648 176.038 24.2361C174.695 24.9074 173.109 25.2431 171.28 25.2431ZM201.359 0.62417V5.38128H194.901V25H188.963V5.38128H182.504V0.62417H201.359Z" fill="#E74C3C"/>
</svg>
