<svg width="40" height="42" viewBox="0 0 40 42" fill="none" xmlns="http://www.w3.org/2000/svg">
<path d="M19.1739 0.972553C15.8754 1.18634 12.412 2.37135 9.67548 4.22217C6.78626 6.17682 4.49565 8.81561 3.01133 11.8942C2.19893 13.5801 1.69194 15.1682 1.34376 17.1229C1.08111 18.5889 1.02613 20.8001 1.20938 22.4982C1.45371 24.7827 2.29055 27.5192 3.42059 29.7549L3.74433 30.384L2.993 32.6258C2.57764 33.8596 1.82632 36.1075 1.31933 37.6223C0.806233 39.1433 0.390869 40.4261 0.390869 40.4871C0.390869 40.5421 0.470277 40.6215 0.56801 40.6582C0.726826 40.7192 0.74515 40.7437 0.714609 40.933C0.677959 41.1285 0.684067 41.1407 0.824558 41.098C1.075 41.0186 6.54193 39.2777 8.85086 38.5325C10.0603 38.1477 11.0987 37.83 11.1598 37.83C11.2148 37.83 11.4774 37.9339 11.7401 38.0682C13.9757 39.1922 16.358 39.8641 18.8929 40.0962C19.8947 40.1817 21.9348 40.139 22.9183 39.9985C28.7456 39.1922 33.7055 35.9731 36.7597 31.0315C37.7553 29.4189 38.7021 27.171 39.2091 25.2164C39.6917 23.3411 39.9238 21.0139 39.7955 19.218C39.4657 14.4475 37.621 10.2205 34.4141 6.8976C31.305 3.67853 27.3468 1.68723 22.8389 1.0825C22.1792 0.996986 19.8947 0.923687 19.1739 0.972553ZM21.5622 5.15063C23.7429 5.32777 25.5326 5.81033 27.4201 6.73268C29.9795 7.99099 32.1235 9.87234 33.7116 12.2668C34.9333 14.1054 35.6846 16.0845 35.9778 18.2468C36.1183 19.273 36.1183 21.3498 35.9778 22.4005C34.9822 29.7854 28.8861 35.4783 21.4889 35.9426C18.8807 36.1014 16.4557 35.6738 14.0857 34.6354C13.4321 34.3483 12.3509 33.7619 12.015 33.5176C11.9111 33.4382 11.7767 33.371 11.7157 33.371C11.6607 33.371 10.3596 33.768 8.83254 34.2567C7.30546 34.7453 6.04715 35.1424 6.04105 35.1302C6.02883 35.1179 6.41976 33.9268 6.90232 32.4853C7.38487 31.0376 7.78191 29.7854 7.78191 29.6877C7.78191 29.5899 7.67196 29.3639 7.51315 29.1379C4.95988 25.479 4.12915 20.4275 5.36913 16.1456C5.64401 15.2171 5.87001 14.649 6.31592 13.7633C7.53758 11.375 9.40061 9.29206 11.6912 7.76498C14.5804 5.83476 18.1905 4.88186 21.5622 5.15063Z" fill="white"/>
<path d="M13.481 10.7947C13.3405 10.8375 13.1389 10.9352 13.0229 11.0024C12.7113 11.1979 11.8073 12.163 11.5263 12.6028C10.6284 14.0016 10.4268 15.8646 10.9644 17.6849C11.3736 19.0592 11.8745 20.1099 12.7907 21.527C13.9513 23.3106 14.7026 24.2757 15.906 25.5157C17.714 27.3788 19.235 28.4233 21.5684 29.3945C23.2909 30.1153 24.5614 30.5245 25.2761 30.5978C25.7709 30.6467 26.852 30.4757 27.4873 30.2435C28.3669 29.9259 29.3748 29.2173 29.7657 28.6432C30.1566 28.0568 30.5598 26.7313 30.6086 25.8517L30.6453 25.2714L30.4559 25.0515C30.3216 24.9049 29.7718 24.575 28.6601 23.9764C26.0213 22.5593 25.6854 22.4249 25.27 22.6448C25.1661 22.6937 24.7752 23.0907 24.4087 23.5183C23.3214 24.7827 23.0954 25.0026 22.9122 25.0026C22.6801 25.0026 21.1591 24.2269 20.4505 23.7504C19.6259 23.1885 19.0884 22.7364 18.4104 22.034C17.6041 21.1972 16.7306 19.9999 16.2419 19.0654L16.132 18.8455L16.5718 18.3629C17.1521 17.746 17.3903 17.3734 17.6224 16.7259C17.8606 16.0662 17.8484 15.8646 17.5002 14.9545C17.1887 14.1421 16.9383 13.4702 16.5046 12.3035C16.1503 11.3445 15.8876 10.9535 15.5211 10.8375C15.173 10.7336 13.7681 10.7031 13.481 10.7947Z" fill="white"/>
</svg>
